<?xml version="1.0" standalone="no"?>
<!DOCTYPE svg PUBLIC "-//W3C//DTD SVG 20010904//EN"
 "http://www.w3.org/TR/2001/REC-SVG-20010904/DTD/svg10.dtd">
<svg version="1.0" xmlns="http://www.w3.org/2000/svg"
 width="512.000000pt" height="512.000000pt" viewBox="0 0 512.000000 512.000000"
 preserveAspectRatio="xMidYMid meet">

<g transform="translate(0.000000,512.000000) scale(0.100000,-0.100000)"
fill="#000000" stroke="none">
<path d="M2455 5072 c-159 -74 -166 -308 -12 -388 l27 -15 0 -219 0 -220 -110
0 c-109 0 -110 0 -124 28 -19 37 -75 88 -109 101 -16 6 -54 11 -85 11 -146 -1
-237 -121 -208 -275 9 -45 68 -112 121 -136 101 -46 231 -3 281 94 14 27 15
27 124 27 l110 0 0 -284 0 -284 -193 -111 c-107 -61 -198 -111 -203 -111 -5 1
-146 101 -314 223 l-305 223 -3 200 -2 201 42 27 c68 43 92 86 96 170 3 87
-23 146 -86 190 -48 34 -141 48 -168 25 -58 -48 -22 -139 55 -139 53 0 69 -92
20 -119 -36 -20 -71 -8 -100 36 -19 29 -32 39 -57 41 -38 4 -77 -18 -84 -46
-12 -46 54 -152 104 -168 17 -5 18 -21 18 -190 l0 -184 -432 0 -433 0 -23 40
c-66 116 -238 135 -336 37 -84 -84 -88 -210 -10 -297 95 -105 278 -89 346 30
l23 40 460 0 460 0 290 -211 c160 -116 291 -212 293 -214 2 -1 -48 -33 -111
-69 -63 -37 -122 -74 -130 -84 -14 -15 -17 -51 -19 -218 l-3 -199 -197 -3
-198 -2 0 287 c-1 310 -1 312 -54 333 -15 5 -87 10 -159 10 l-132 0 -23 40
c-66 116 -238 135 -336 37 -99 -99 -82 -256 35 -334 33 -21 56 -28 108 -31 85
-5 143 23 186 90 l30 47 98 0 97 1 -2 -237 -3 -238 -342 -3 -341 -2 -21 34
c-55 89 -137 127 -230 107 -77 -15 -123 -49 -155 -112 -34 -69 -34 -128 -1
-196 69 -137 253 -161 354 -47 23 26 41 51 41 55 0 5 158 9 350 9 l350 0 0
-235 0 -235 -94 0 -93 0 -30 48 c-58 94 -175 126 -279 78 -129 -60 -164 -226
-71 -333 97 -110 289 -94 353 30 l15 27 134 0 c73 0 146 5 161 10 53 20 53 23
54 328 l0 282 200 0 200 0 0 -225 c0 -203 2 -227 18 -243 10 -10 69 -46 131
-81 62 -35 109 -67 104 -72 -4 -4 -135 -100 -291 -213 l-283 -206 -462 0 -462
1 -26 43 c-33 54 -111 96 -178 96 -186 0 -289 -219 -168 -357 85 -97 250 -99
330 -3 14 16 28 39 32 50 6 20 15 20 441 20 l434 0 -1 -182 0 -183 -42 -30
c-122 -88 -113 -279 17 -359 96 -60 224 -32 290 62 39 55 49 158 21 213 -22
43 -62 87 -97 105 l-28 15 0 198 0 199 311 227 c172 124 317 224 323 222 6 -3
97 -55 201 -115 l190 -111 3 -280 2 -281 -112 0 -113 0 -35 47 c-78 104 -216
122 -314 41 -51 -42 -76 -95 -76 -163 0 -133 84 -218 217 -217 80 0 141 33
179 97 l26 45 114 0 114 0 0 -193 0 -193 -45 -32 c-122 -86 -121 -269 2 -356
50 -34 137 -46 197 -26 162 53 192 283 51 382 l-45 32 0 193 0 193 114 0 114
0 26 -45 c37 -62 99 -97 174 -97 135 -1 221 82 222 215 0 70 -24 122 -76 165
-98 81 -236 63 -314 -41 l-35 -47 -112 0 -113 0 0 279 0 279 201 117 c110 64
204 115 208 113 4 -2 145 -103 314 -226 l307 -224 0 -199 0 -198 -27 -15 c-36
-18 -76 -62 -98 -105 -28 -55 -18 -158 21 -213 89 -127 279 -123 359 7 26 42
30 58 30 120 0 61 -4 77 -28 113 -15 23 -43 52 -62 65 l-35 22 0 183 0 182
434 0 c426 0 435 0 441 -20 21 -68 106 -120 192 -120 189 1 288 197 175 349
-32 42 -113 81 -173 81 -67 0 -145 -42 -178 -96 l-26 -43 -462 -1 -462 0 -283
206 c-156 113 -287 209 -291 214 -5 4 42 36 104 71 62 35 121 71 131 81 36 36
12 106 -41 123 -25 8 -29 6 -441 -232 -190 -110 -355 -205 -368 -212 -21 -11
-54 5 -393 200 l-369 213 0 430 1 431 369 213 370 212 370 -212 369 -213 1
-261 c0 -249 1 -263 21 -288 39 -50 129 -23 129 39 l0 25 200 0 200 0 0 -282
c1 -305 1 -308 54 -328 15 -5 88 -10 161 -10 l134 0 15 -27 c47 -92 179 -131
281 -84 165 74 165 311 1 387 -104 48 -221 16 -279 -78 l-30 -48 -93 0 -94 0
0 235 0 235 350 0 c193 0 350 -4 350 -9 0 -4 18 -29 41 -55 101 -114 285 -90
354 47 33 67 33 127 0 194 -31 62 -82 99 -156 114 -93 20 -175 -19 -230 -107
l-21 -34 -341 2 -342 3 -3 238 -2 237 97 -1 98 0 30 -47 c43 -67 101 -95 186
-90 52 3 75 10 108 31 117 78 134 235 35 334 -98 98 -270 79 -336 -37 l-23
-40 -132 0 c-72 0 -144 -5 -159 -10 -53 -21 -53 -23 -54 -333 l0 -287 -197 2
-198 3 -3 199 c-2 167 -5 203 -19 218 -8 10 -67 47 -130 84 -63 36 -113 68
-111 69 2 2 134 98 293 214 l290 211 460 0 460 0 20 -37 c11 -21 39 -51 63
-67 60 -42 156 -48 222 -14 150 78 159 289 14 378 -24 16 -57 24 -102 27 -86
6 -143 -21 -187 -89 l-30 -47 -432 0 -433 -1 0 185 c0 112 4 185 10 185 5 0
26 15 46 32 117 103 92 287 -50 360 -60 31 -161 23 -217 -17 -64 -45 -90 -103
-87 -191 4 -84 28 -127 96 -170 l42 -27 -2 -201 -3 -200 -305 -223 c-168 -122
-309 -222 -315 -222 -5 -1 -102 53 -215 118 l-205 119 -3 276 -2 276 125 0
124 0 15 -27 c50 -97 180 -140 281 -94 53 24 112 91 121 136 29 154 -62 274
-208 275 -31 0 -69 -5 -85 -11 -34 -13 -90 -64 -109 -101 l-15 -28 -124 0
-125 0 0 220 0 220 40 20 c62 32 94 88 98 174 3 88 -23 146 -87 191 -55 38
-153 46 -216 17z m137 -149 c22 -20 23 -70 1 -95 -36 -40 -113 -8 -113 47 0
54 71 85 112 48z m1207 -545 c33 -59 -28 -120 -87 -87 -34 19 -42 71 -16 100
27 30 84 22 103 -13z m-1700 -190 c33 -59 -28 -120 -87 -87 -34 19 -42 71 -16
100 27 30 84 22 103 -13z m1023 15 c10 -9 18 -30 18 -49 0 -57 -69 -85 -110
-44 -60 60 29 150 92 93z m-2860 -450 c28 -32 30 -58 7 -86 -38 -49 -119 -23
-119 38 0 54 78 87 112 48z m4688 -3 c41 -41 10 -110 -48 -110 -55 0 -85 61
-51 103 25 33 70 36 99 7z m-4188 -517 c28 -32 30 -58 7 -86 -38 -49 -119 -23
-119 38 0 54 78 87 112 48z m3688 -3 c41 -41 10 -110 -48 -110 -55 0 -85 61
-51 103 25 33 70 36 99 7z m-4181 -625 c23 -22 18 -75 -8 -97 -31 -25 -57 -23
-86 7 -32 31 -32 59 1 91 27 28 64 27 93 -1z m4676 0 c32 -31 32 -59 -1 -91
-27 -28 -64 -27 -93 1 -23 22 -18 75 8 97 31 25 57 23 86 -7z m-4194 -606 c41
-21 44 -86 5 -111 -24 -16 -75 -8 -90 14 -21 30 -20 50 5 82 22 28 48 33 80
15z m3698 -15 c25 -32 26 -52 5 -82 -15 -22 -66 -30 -90 -14 -23 15 -34 50
-25 76 20 50 78 61 110 20z m-4198 -565 c41 -21 44 -86 5 -111 -24 -16 -75 -8
-90 14 -21 30 -20 50 5 82 22 28 48 33 80 15z m4698 -15 c25 -32 26 -52 5 -82
-18 -26 -74 -30 -98 -6 -24 24 -20 80 6 98 33 23 64 19 87 -10z m-2860 -450
c35 -45 22 -88 -32 -107 -19 -7 -56 8 -69 27 -14 21 -8 66 12 86 28 28 64 25
89 -6z m1031 6 c36 -36 18 -108 -28 -111 -50 -4 -82 21 -82 62 0 58 70 89 110
49z m-1702 -186 c29 -20 30 -74 2 -99 -42 -38 -110 -9 -110 47 0 56 60 86 108
52z m2372 -4 c41 -41 13 -112 -45 -112 -37 0 -65 29 -65 68 0 57 69 85 110 44z
m-1194 -468 c26 -17 36 -53 24 -83 -13 -32 -45 -45 -84 -35 -32 8 -52 56 -35
88 15 30 28 38 59 38 14 0 30 -4 36 -8z"/>
<path d="M2333 2871 c-21 -20 -31 -43 -160 -386 -69 -184 -74 -202 -61 -225 7
-13 26 -31 41 -40 45 -25 87 8 117 93 l10 27 109 0 c105 0 110 -1 116 -22 16
-54 38 -87 64 -98 49 -20 101 15 101 70 0 34 -200 553 -222 578 -27 28 -86 30
-115 3z m80 -312 c10 -28 16 -53 14 -56 -3 -2 -23 -3 -45 -1 l-39 3 20 53 c11
28 23 52 26 52 3 0 14 -23 24 -51z"/>
<path d="M2789 2871 l-24 -19 0 -296 c0 -282 1 -296 20 -315 34 -33 68 -36
101 -8 l29 25 0 295 c0 276 -1 296 -19 316 -24 27 -76 28 -107 2z"/>
</g>
</svg>
