<?xml version="1.0" standalone="no"?>
<!DOCTYPE svg PUBLIC "-//W3C//DTD SVG 20010904//EN"
 "http://www.w3.org/TR/2001/REC-SVG-20010904/DTD/svg10.dtd">
<svg version="1.0" xmlns="http://www.w3.org/2000/svg"
 width="156.000000pt" height="148.000000pt" viewBox="0 0 156.000000 148.000000"
 preserveAspectRatio="xMidYMid meet">

<g transform="translate(0.000000,148.000000) scale(0.100000,-0.100000)"
fill="#000000" stroke="none">
<path d="M670 1469 c-120 -14 -180 -36 -222 -80 l-38 -40 0 -108 0 -108 185 0
c102 0 188 -3 191 -5 3 -3 2 -17 -2 -32 l-6 -26 -297 0 c-283 0 -298 -1 -331
-21 -110 -66 -158 -216 -139 -429 10 -102 28 -159 72 -216 43 -58 85 -77 183
-82 l82 -4 4 133 c3 120 6 139 27 176 14 24 42 55 64 70 l40 28 261 5 c179 4
270 10 291 18 45 20 94 72 105 112 5 19 10 129 10 245 0 189 -2 213 -19 241
-25 41 -76 80 -129 98 -35 13 -228 39 -251 35 -3 -1 -40 -5 -81 -10z m-71
-114 c79 -40 17 -164 -64 -127 -33 15 -47 52 -34 91 9 25 29 40 67 50 2 1 16
-6 31 -14z"/>
</g>
</svg>
