<?xml version="1.0" standalone="no"?>
<!DOCTYPE svg PUBLIC "-//W3C//DTD SVG 20010904//EN"
 "http://www.w3.org/TR/2001/REC-SVG-20010904/DTD/svg10.dtd">
<svg version="1.0" xmlns="http://www.w3.org/2000/svg"
 width="2560.000000pt" height="1984.000000pt" viewBox="0 0 2560.000000 1984.000000"
 preserveAspectRatio="xMidYMid meet">

<g transform="translate(0.000000,1984.000000) scale(0.100000,-0.100000)"
fill="#000000" stroke="none">
<path d="M10540 7250 l0 -7180 2170 0 2170 0 3 1353 c1 743 2 2009 2 2812 l0
1460 640 0 c506 0 652 -3 695 -14 89 -21 187 -74 305 -162 252 -189 408 -387
783 -989 36 -58 188 -334 338 -615 150 -280 301 -562 336 -626 34 -64 434
-814 888 -1667 l825 -1551 2454 -1 c2105 0 2452 2 2448 14 -3 8 -667 1129
-1475 2493 -808 1363 -1495 2525 -1527 2583 -208 375 -373 554 -696 752 -291
179 -581 303 -1179 504 l-275 92 60 7 c325 38 777 149 1115 273 623 230 1134
546 1551 962 557 556 901 1260 1023 2095 50 339 63 846 31 1180 -118 1233
-678 2141 -1694 2747 -575 344 -1363 585 -2116 648 -78 6 -1645 10 -4497 10
l-4378 0 0 -7180z m7320 4043 c378 -83 643 -272 789 -561 88 -175 125 -353
125 -612 0 -244 -25 -377 -104 -561 -145 -339 -456 -568 -896 -661 l-109 -23
-1372 -3 -1373 -3 0 1226 0 1226 1423 -4 c1401 -3 1423 -3 1517 -24z"/>
</g>
</svg>
