<?xml version="1.0" standalone="no"?>
<!DOCTYPE svg PUBLIC "-//W3C//DTD SVG 20010904//EN"
 "http://www.w3.org/TR/2001/REC-SVG-20010904/DTD/svg10.dtd">
<svg version="1.0" xmlns="http://www.w3.org/2000/svg"
 width="267.000000pt" height="148.000000pt" viewBox="0 0 267.000000 148.000000"
 preserveAspectRatio="xMidYMid meet">

<g transform="translate(0.000000,148.000000) scale(0.100000,-0.100000)"
fill="#000000" stroke="none">
<path d="M1135 1455 c-160 -29 -257 -69 -315 -130 l-35 -36 0 -554 0 -554 30
-31 c96 -101 317 -157 574 -147 191 7 342 46 428 111 77 58 73 21 73 618 0
605 5 566 -84 628 -132 90 -451 136 -671 95z m362 -65 c100 -14 166 -35 203
-67 52 -43 31 -93 -53 -128 -51 -21 -215 -45 -312 -45 -97 0 -261 24 -312 45
-149 63 -89 157 122 190 101 16 251 18 352 5z m-353 -556 c11 -4 16 -19 16
-45 0 -21 -1 -39 -3 -39 -1 0 -18 4 -37 10 -36 10 -70 5 -70 -11 0 -5 20 -18
44 -29 53 -22 76 -53 76 -101 0 -74 -84 -109 -197 -84 -20 5 -23 12 -23 50 0
25 2 45 4 45 2 0 20 -7 39 -15 48 -20 67 -19 67 3 0 12 -14 25 -41 37 -48 22
-69 49 -69 88 0 38 15 64 48 81 27 15 117 21 146 10z m276 -12 c44 -23 70 -73
70 -134 0 -59 -12 -89 -45 -121 l-27 -24 46 -40 c25 -22 46 -43 46 -47 0 -3
-26 -6 -58 -6 -56 0 -60 2 -91 40 -19 24 -40 40 -53 40 -32 0 -86 40 -103 77
-21 45 -19 121 5 161 42 68 136 93 210 54z m210 -97 l0 -115 50 0 50 0 0 -40
0 -40 -100 0 -100 0 0 155 0 155 50 0 50 0 0 -115z"/>
<path d="M1309 743 c-22 -25 -18 -102 5 -119 26 -18 32 -18 56 6 24 24 26 77
4 108 -18 26 -46 29 -65 5z"/>
</g>
</svg>
